<svg version="1.1" id="Layer_1" xmlns="http://www.w3.org/2000/svg" xmlns:xlink="http://www.w3.org/1999/xlink" x="0px" y="0px"
	 viewBox="0 0 40 40" style="enable-background:new 0 0 40 40;" xml:space="preserve">
<polygon style="fill:#A3B7CC;" points="26,35 8,35 8,9 9,9 9,34 26,34 "/>
<rect x="8" y="19" style="fill:#A3B7CC;" width="18" height="1"/>
<g>
	<polygon style="fill:#DBB065;" points="1.5,12.5 1.5,1.5 5.793,1.5 7.793,3.5 14.5,3.5 14.5,12.5 	"/>
	<g>
		<path style="fill:#967A44;" d="M5.586,2l1.707,1.707L7.586,4H8h6v8L2,12V2H5.586 M6,1H1v12l14,0V3H8L6,1L6,1z"/>
	</g>
</g>
<g>
	<polygon style="fill:#F5CE85;" points="1.5,12.5 1.5,4.5 7.207,4.5 8.207,3.5 14.5,3.5 14.5,12.5 	"/>
	<g>
		<path style="fill:#967A44;" d="M14,4v8L2,12V5h5h0.414l0.293-0.293L8.414,4H14 M15,3H8L7,4H1v9l14,0V3L15,3z"/>
	</g>
</g>
<g>
	<polygon style="fill:#DBB065;" points="25.5,23.5 25.5,12.5 29.793,12.5 31.793,14.5 38.5,14.5 38.5,23.5 	"/>
	<g>
		<path style="fill:#967A44;" d="M29.586,13l1.707,1.707L31.586,15H32h6v8l-12,0V13H29.586 M30,12h-5v12l14,0V14h-7L30,12L30,12z"/>
	</g>
</g>
<g>
	<polygon style="fill:#F5CE85;" points="25.5,23.5 25.5,15.5 31.207,15.5 32.207,14.5 38.5,14.5 38.5,23.5 	"/>
	<g>
		<path style="fill:#967A44;" d="M38,15v8l-12,0v-7h5h0.414l0.293-0.293L32.414,15H38 M39,14h-7l-1,1h-6v9l14,0V14L39,14z"/>
	</g>
</g>
<g>
	<polygon style="fill:#DBB065;" points="25.5,38.5 25.5,27.5 29.793,27.5 31.793,29.5 38.5,29.5 38.5,38.5 	"/>
	<g>
		<path style="fill:#967A44;" d="M29.586,28l1.707,1.707L31.586,30H32h6v8l-12,0V28H29.586 M30,27h-5v12l14,0V29h-7L30,27L30,27z"/>
	</g>
</g>
<g>
	<polygon style="fill:#F5CE85;" points="25.5,38.5 25.5,30.5 31.207,30.5 32.207,29.5 38.5,29.5 38.5,38.5 	"/>
	<g>
		<path style="fill:#967A44;" d="M38,30v8l-12,0v-7h5h0.414l0.293-0.293L32.414,30H38 M39,29h-7l-1,1h-6v9l14,0V29L39,29z"/>
	</g>
</g>
</svg>