<svg width="122.88" height="121.91000000000001" xmlns="http://www.w3.org/2000/svg" data-name="Layer 1">

 <title>online-form</title>
 <g>
  <title>Layer 1</title>
  <path id="svg_1" fill="rgba(0,183,255,0.87)" fill-rule="evenodd" d="m30.11,3.73a1.21,1.21 0 1 1 0,2.42a1.23,1.23 0 0 1 -1.22,-1.21a1.22,1.22 0 0 1 1.22,-1.21zm49.28,82.92a0.36,0.36 0 0 1 -0.48,0l-2.54,-2.53l-1.21,2.4c-0.36,0.72 -1,1 -1.31,0.18l-3.65,-10.37c-0.08,-0.21 0,-0.3 0.22,-0.22l10.37,3.65c0.87,0.3 0.54,0.95 -0.18,1.31l-2.4,1.21l2.53,2.53a0.38,0.38 0 0 1 0,0.49l-1.35,1.35zm-35.73,-14.77l35.56,0a1.59,1.59 0 0 1 1.57,1.58l0,4.06l-9.67,-3.4a2.27,2.27 0 0 0 -1,-0.14a2.21,2.21 0 0 0 -2.06,1.89l0,0.18a2.64,2.64 0 0 0 0.14,1l2.23,6.3l-26.77,0a1.58,1.58 0 0 1 -1.57,-1.58l0,-8.3a1.58,1.58 0 0 1 1.57,-1.58l0,-0.01zm-40.14,-57.45l6.48,0l0,5l-1.15,0a3.11,3.11 0 0 0 -3.11,3.11l0,63.57a3.12,3.12 0 0 0 3.11,3.11l5.59,0l0,-86.42a2.83,2.83 0 0 1 0.82,-2a2.85,2.85 0 0 1 2,-0.82l88.4,0a2.82,2.82 0 0 1 2.8,2.8l0,86.44l5.54,0a3.12,3.12 0 0 0 3.11,-3.11l0,-63.54a3.11,3.11 0 0 0 -3.11,-3.11l-1.1,0l0,-5l6.46,0a3.53,3.53 0 0 1 3.52,3.54l0,81.14a3.53,3.53 0 0 1 -3.52,3.53l-115.84,0a3.53,3.53 0 0 1 -3.52,-3.53l0,-81.14a3.53,3.53 0 0 1 3.52,-3.52l0,-0.05zm13.3,74.79l89.23,0l0,-80.22l-89.23,0l0,80.22zm31.7,-71l-1.89,0l0,2.58l-2.23,0l0,-7l4.6,0l-0.28,1.78l-2.09,0l0,0.94l1.89,0l0,1.66l0,0.04zm3,-0.9a4.43,4.43 0 0 1 0.71,-2.78a3.21,3.21 0 0 1 2.58,-0.87a3.18,3.18 0 0 1 2.57,0.87a4.43,4.43 0 0 1 0.71,2.78a7.18,7.18 0 0 1 -0.15,1.6a2.82,2.82 0 0 1 -0.48,1.08a2,2 0 0 1 -1,0.7a5.72,5.72 0 0 1 -3.21,0a2,2 0 0 1 -1,-0.7a2.82,2.82 0 0 1 -0.52,-1.12a7.18,7.18 0 0 1 -0.15,-1.6l-0.06,0.04zm2.48,-1.18l0,2.86l0.93,0a1.57,1.57 0 0 0 0.66,-0.1c0.14,-0.07 0.21,-0.24 0.21,-0.49l0,-2.9l-0.94,0a1.52,1.52 0 0 0 -0.65,0.11c-0.14,0.07 -0.21,0.23 -0.21,0.49l0,0.03zm13.29,4.63l-2.5,0l-0.92,-2.07l-0.48,0l0,2.07l-2.22,0l0,-7l3.51,0a2.13,2.13 0 0 1 2.39,2.44a2.23,2.23 0 0 1 -1,2.2l1.2,2.32l0.02,0.04zm-3.85,-5.18l0,1.41l0.52,0a1.63,1.63 0 0 0 0.58,-0.08a0.4,0.4 0 0 0 0.19,-0.39l0,-0.45a0.4,0.4 0 0 0 -0.19,-0.39a1.63,1.63 0 0 0 -0.58,-0.08l-0.52,-0.02zm8.93,5.18l-2.37,0l0.43,-7l2.91,0l0.86,3.54l0.08,0l0.87,-3.54l2.91,0l0.42,7l-2.34,0l-0.14,-3.38l-0.08,0l-0.84,3.38l-1.7,0l-0.86,-3.38l-0.06,0l-0.14,3.38l0.05,0zm-49.24,5.36l76.62,0a2.51,2.51 0 0 1 1.76,0.73l0,0a2.5,2.5 0 0 1 0.73,1.76l0,5.64a2.47,2.47 0 0 1 -0.73,1.75l0,0a2.48,2.48 0 0 1 -1.76,0.73l-76.62,0a2.51,2.51 0 0 1 -1.76,-0.74l0,0a2.47,2.47 0 0 1 -0.73,-1.75l0,-5.63a2.51,2.51 0 0 1 0.73,-1.76l0,0a2.52,2.52 0 0 1 1.76,-0.73zm0,29.63l76.62,0a2.51,2.51 0 0 1 1.76,0.73l0,0a2.48,2.48 0 0 1 0.73,1.76l0,5.63a2.5,2.5 0 0 1 -0.73,1.76l0,0a2.48,2.48 0 0 1 -1.76,0.73l-76.62,0a2.51,2.51 0 0 1 -1.76,-0.73l0,0a2.48,2.48 0 0 1 -0.73,-1.76l0,-5.63a2.5,2.5 0 0 1 0.73,-1.76l0,0a2.48,2.48 0 0 1 1.76,-0.73zm77.15,1.63l-77.68,0a0.31,0.31 0 0 0 -0.33,0.33l0,6.69a0.31,0.31 0 0 0 0.33,0.33l77.68,0a0.32,0.32 0 0 0 0.23,-0.09a0.35,0.35 0 0 0 0.1,-0.24l0,-6.69a0.35,0.35 0 0 0 -0.1,-0.24a0.32,0.32 0 0 0 -0.23,-0.09zm-77.15,-16.45l76.62,0a2.51,2.51 0 0 1 1.76,0.73l0,0a2.47,2.47 0 0 1 0.73,1.75l0,5.64a2.5,2.5 0 0 1 -0.73,1.76l0,0a2.48,2.48 0 0 1 -1.76,0.73l-76.62,0a2.51,2.51 0 0 1 -1.76,-0.73l0,0a2.5,2.5 0 0 1 -0.73,-1.76l0,-5.63a2.47,2.47 0 0 1 0.73,-1.75l0,0a2.52,2.52 0 0 1 1.76,-0.73l0,-0.01zm77.15,1.63l-77.68,0a0.35,0.35 0 0 0 -0.24,0.1a0.32,0.32 0 0 0 -0.09,0.24l0,6.69a0.32,0.32 0 0 0 0.09,0.23a0.35,0.35 0 0 0 0.24,0.1l77.68,0a0.34,0.34 0 0 0 0.33,-0.33l0,-6.69a0.33,0.33 0 0 0 -0.1,-0.24a0.33,0.33 0 0 0 -0.23,-0.1zm0,-14.81l-77.68,0a0.35,0.35 0 0 0 -0.24,0.1a0.32,0.32 0 0 0 -0.09,0.23l0,6.7a0.32,0.32 0 0 0 0.09,0.23a0.35,0.35 0 0 0 0.24,0.1l77.68,0a0.34,0.34 0 0 0 0.33,-0.33l0,-6.7a0.34,0.34 0 0 0 -0.33,-0.33zm-75.39,-24a1.21,1.21 0 1 1 -1.22,1.21a1.22,1.22 0 0 1 1.22,-1.21zm-5.22,0a1.21,1.21 0 1 1 -1.21,1.21a1.2,1.2 0 0 1 1.21,-1.21zm57.75,103.8c0.08,5.53 2.36,10.48 8.53,14.38l-49,0c5,-3.6 8.55,-8 8.53,-14.38l31.94,0z" class="cls-1"/>
  <path transform="rotate(90 37.4711 17.4791)" id="svg_2" d="m37.47112,12.97915c-2.48527,0 -4.5,2.01472 -4.5,4.5c0,2.48527 2.01473,4.5 4.5,4.5c2.48527,0 4.5,-2.01473 4.5,-4.5c0,-2.48528 -2.01472,-4.5 -4.5,-4.5zm-0.72295,7.51111l-1.09488,-1.09584l1.91563,-1.91551l-1.91563,-1.91551l1.09488,-1.09489l3.01074,3.0104l-3.01074,3.01134z" fill="rgba(0,183,255,0.87)" fill-rule="evenodd" />
 </g>
</svg>