<?xml version="1.0" encoding="utf-8"?><svg version="1.1" id="Layer_1" xmlns="http://www.w3.org/2000/svg" xmlns:xlink="http://www.w3.org/1999/xlink" x="0px" y="0px" width="122.879px" height="95.205px" viewBox="0 0 122.879 95.205" enable-background="new 0 0 122.879 95.205" xml:space="preserve"><g><path d="M2.476,20.741h4.496v-9.858c0-1.371,1.112-2.483,2.483-2.483h4.409V2.482C13.864,1.111,14.976,0,16.347,0h40.26 c1.371,0,2.482,1.111,2.482,2.482V8.4h54.296c1.37,0,2.481,1.112,2.481,2.483v9.858h4.529c1.371,0,2.482,1.111,2.482,2.482 c0,0.18-0.02,0.355-0.056,0.524l-8.68,63.812c-0.283,2.081-1.192,4.011-2.588,5.406c-1.383,1.382-3.21,2.239-5.36,2.239H14.697 c-2.163,0-4.028-0.865-5.426-2.264c-1.406-1.405-2.314-3.35-2.536-5.464L0.013,23.476c-0.139-1.36,0.851-2.576,2.21-2.715 c0.085-0.009,0.169-0.013,0.252-0.014V20.741L2.476,20.741z M58.804,37.036c5.385,0,10.271,2.192,13.809,5.716 c3.538,3.539,5.717,8.409,5.717,13.81c0,3.939-1.175,7.621-3.181,10.687l8.452,9.212l-5.831,5.329l-8.151-8.968 c-3.095,2.063-6.818,3.266-10.815,3.266c-5.387,0-10.272-2.191-13.811-5.716c-3.538-3.538-5.716-8.409-5.716-13.81 c0-5.387,2.191-10.271,5.716-13.81C48.532,39.214,53.403,37.036,58.804,37.036L58.804,37.036z M70.037,45.328 c-2.874-2.874-6.851-4.659-11.233-4.659c-4.384,0-8.36,1.785-11.234,4.659c-2.874,2.875-4.66,6.851-4.66,11.234 c0,4.383,1.786,8.359,4.66,11.233s6.85,4.659,11.234,4.659c4.382,0,8.359-1.785,11.233-4.659s4.659-6.851,4.659-11.233 C74.696,52.179,72.911,48.203,70.037,45.328L70.037,45.328L70.037,45.328z M9.455,25.706H5.227l6.435,61.268 c0.103,0.979,0.497,1.854,1.101,2.457c0.5,0.5,1.165,0.81,1.935,0.81h91.498c0.747,0,1.384-0.301,1.869-0.785 c0.621-0.621,1.033-1.534,1.172-2.555l8.324-61.194H9.455L9.455,25.706z M11.938,13.365v7.358l98.965-1.052v-6.307H56.607 c-1.371,0-2.483-1.111-2.483-2.482V4.965H18.83v5.918c0,1.371-1.111,2.482-2.482,2.482H11.938L11.938,13.365z"/></g></svg>