<?xml version="1.0" encoding="utf-8"?><svg version="1.1" id="Layer_1" xmlns="http://www.w3.org/2000/svg" xmlns:xlink="http://www.w3.org/1999/xlink" x="0px" y="0px" viewBox="0 0 115.13 122.88" style="enable-background:new 0 0 115.13 122.88" xml:space="preserve"><style type="text/css">.st0{fill-rule:evenodd;clip-rule:evenodd;}</style><g><path class="st0" d="M11,100.87c6.08,0,11,4.93,11,11c0,6.08-4.93,11-11,11c-6.08,0-11-4.93-11-11C0,105.8,4.93,100.87,11,100.87 L11,100.87z M51.85,76.12H15.91v15.72c0,2.71-2.2,4.91-4.91,4.91c-2.71,0-4.91-2.2-4.91-4.91V72.68c0-0.25,0.02-0.49,0.05-0.73 c-0.04-0.24-0.05-0.48-0.05-0.73c0-2.71,2.2-4.91,4.91-4.91h40.58l-0.16-13.2c-0.98-0.29-1.96-0.61-2.92-1.02 c-0.96-0.41-1.89-0.84-2.77-1.36l-3.05,3.36c-0.56,0.58-1.27,0.88-2.07,0.91c-0.8,0.03-1.53-0.22-2.13-0.75L34,50.05 c-0.6-0.59-0.94-1.26-0.97-2.07c-0.03-0.83,0.24-1.51,0.8-2.08l3.35-3.62c-0.51-0.89-0.99-1.82-1.38-2.77 c-0.4-0.95-0.74-1.94-1.03-2.95l-4.48,0.18c-0.83,0.03-1.53-0.24-2.14-0.8c-0.6-0.59-0.91-1.27-0.94-2.04l-0.24-6.14 c-0.03-0.83,0.22-1.53,0.77-2.14c0.56-0.6,1.24-0.91,2.07-0.94l4.89-0.19c0.29-1.01,0.61-1.99,1.02-2.95 c0.41-0.96,0.84-1.89,1.36-2.77l-3.31-3.05c-0.6-0.56-0.94-1.26-0.97-2.07c-0.03-0.8,0.24-1.53,0.8-2.14l4.12-4.48 c0.59-0.6,1.26-0.94,2.07-0.97c0.83-0.03,1.51,0.25,2.08,0.8l3.68,3.34c0.84-0.5,1.73-0.98,2.69-1.38c0.95-0.4,1.94-0.74,2.95-1.03 l-0.18-4.48c-0.03-0.83,0.24-1.53,0.8-2.14c0.59-0.6,1.27-0.91,2.04-0.94L59.99,0c0.83-0.03,1.53,0.22,2.14,0.77 c0.6,0.56,0.91,1.24,0.94,2.07l0.19,4.89c0.98,0.29,1.96,0.61,2.92,1.02c0.96,0.38,1.89,0.84,2.77,1.36L72,6.81 c0.56-0.6,1.26-0.94,2.07-0.97c0.8-0.03,1.53,0.24,2.14,0.8l0.06,0.05l4.48,4.12c0.6,0.59,0.94,1.26,0.97,2.07 c0.03,0.83-0.25,1.51-0.8,2.08l-3.34,3.68c0.5,0.87,0.98,1.76,1.38,2.74c0.4,0.98,0.74,1.94,1.03,2.92l4.48-0.18 c0.83-0.03,1.53,0.24,2.14,0.8c0.6,0.59,0.91,1.27,0.94,2.04l0.24,6.14c0.03,0.83-0.22,1.53-0.77,2.14 c-0.56,0.6-1.24,0.91-2.07,0.94l-4.89,0.19c-0.29,0.98-0.61,1.96-1.02,2.92c-0.41,0.96-0.84,1.89-1.36,2.77l3.36,3.05 c0.58,0.56,0.88,1.27,0.91,2.07c0.03,0.8-0.22,1.5-0.75,2.13l-4.2,4.49c-0.53,0.6-1.21,0.93-2.04,0.97 c-0.83,0.03-1.53-0.24-2.11-0.8l-3.62-3.35c-0.89,0.51-1.82,0.99-2.77,1.38c-0.95,0.4-1.94,0.74-2.95,1.03l0.15,13.26h40.48 c2.71,0,4.91,2.2,4.91,4.91c0,0.25-0.02,0.49-0.05,0.73c0.04,0.24,0.05,0.48,0.05,0.73v19.16c0,2.71-2.2,4.91-4.91,4.91 c-2.71,0-4.91-2.2-4.91-4.91V76.12h-35.6v14.15c0,3.25-2.64,5.89-5.89,5.89c-3.25,0-5.89-2.64-5.89-5.89V76.12L51.85,76.12z M56.87,18.35c1.66-0.07,3.22,0.18,4.74,0.75c1.49,0.58,2.8,1.38,3.95,2.42c1.12,1.04,2.03,2.3,2.72,3.74 c0.7,1.47,1.06,3,1.13,4.66c0.07,1.66-0.18,3.22-0.75,4.74c-0.58,1.49-1.39,2.8-2.42,3.95c-1.04,1.12-2.3,2.03-3.74,2.72 c-1.44,0.69-3,1.06-4.66,1.13c-1.66,0.07-3.22-0.18-4.74-0.75c-1.49-0.58-2.8-1.38-3.95-2.42c-1.12-1.04-2.03-2.3-2.72-3.74 c-0.69-1.44-1.06-3-1.13-4.66c-0.07-1.66,0.18-3.22,0.75-4.74c0.58-1.49,1.39-2.8,2.42-3.95c1.04-1.12,2.3-2.03,3.74-2.72 C53.67,18.78,55.21,18.42,56.87,18.35L56.87,18.35z M104.13,100.87c6.08,0,11,4.93,11,11c0,6.08-4.93,11-11,11 c-6.08,0-11-4.93-11-11C93.12,105.8,98.05,100.87,104.13,100.87L104.13,100.87z M57.37,100.87c6.08,0,11,4.93,11,11 c0,6.08-4.93,11-11,11c-6.08,0-11-4.93-11-11C46.37,105.8,51.29,100.87,57.37,100.87L57.37,100.87z"/></g></svg>