<svg id="Layer_1" data-name="Layer 1" xmlns="http://www.w3.org/2000/svg" viewBox="0 0 122.88 122.09"><title>manage-categories</title><path d="M113.09,75.24a2.57,2.57,0,0,0-3.69,0L106.59,78a20.3,20.3,0,0,0-2.39-1.29,24.05,24.05,0,0,0-2.55-1V71.44a2.5,2.5,0,0,0-.75-1.85,2.54,2.54,0,0,0-1.85-.75H93.64a2.55,2.55,0,0,0-1.82.75,2.48,2.48,0,0,0-.77,1.85v4a18.68,18.68,0,0,0-2.63.81A18.46,18.46,0,0,0,86,77.32l-3.12-3.08a2.38,2.38,0,0,0-1.8-.78,2.59,2.59,0,0,0-1.85.78L75.45,78a2.52,2.52,0,0,0-.79,1.85,2.47,2.47,0,0,0,.79,1.84l2.8,2.82A17.64,17.64,0,0,0,77,86.94a21.94,21.94,0,0,0-1,2.54H71.65a2.49,2.49,0,0,0-1.85.76A2.53,2.53,0,0,0,69,92.09V97.5a2.58,2.58,0,0,0,.76,1.82,2.5,2.5,0,0,0,1.85.77H75.6a19.5,19.5,0,0,0,.8,2.63,26.24,26.24,0,0,0,1.12,2.47l-3.07,3.06a2.38,2.38,0,0,0-.78,1.81,2.51,2.51,0,0,0,.78,1.84l3.8,3.85a2.64,2.64,0,0,0,1.84.73,2.62,2.62,0,0,0,1.85-.73l2.82-2.86a18.14,18.14,0,0,0,2.38,1.29,22.81,22.81,0,0,0,2.55,1v4.31a2.56,2.56,0,0,0,2.6,2.6h5.42a2.53,2.53,0,0,0,1.81-.75,2.49,2.49,0,0,0,.78-1.85v-3.95a20.4,20.4,0,0,0,2.62-.8c.85-.34,1.68-.71,2.48-1.12l3.06,3.07a2.53,2.53,0,0,0,3.65,0l3.84-3.8a2.62,2.62,0,0,0,.73-1.85,2.57,2.57,0,0,0-.73-1.84l-2.85-2.82a19.4,19.4,0,0,0,1.29-2.38,24.85,24.85,0,0,0,1-2.55h4.32a2.59,2.59,0,0,0,2.6-2.6V93.43a2.54,2.54,0,0,0-.76-1.82,2.48,2.48,0,0,0-1.84-.77h-4a22.91,22.91,0,0,0-.81-2.6,19.62,19.62,0,0,0-1.12-2.45l3.07-3.11a2.38,2.38,0,0,0,.78-1.8,2.52,2.52,0,0,0-.78-1.85l-3.8-3.79ZM5,67.53H49.39a5,5,0,0,1,5,5v44.18a5,5,0,0,1-5,5H5a5,5,0,0,1-5-5V72.55a5,5,0,0,1,5-5ZM73.49,0h44.37a5,5,0,0,1,5,5V49.19a5,5,0,0,1-5,5H73.49a5,5,0,0,1-5-5V5a5,5,0,0,1,5-5ZM5,0H49.39a5,5,0,0,1,5,5V49.19a5,5,0,0,1-5,5H5a5,5,0,0,1-5-5V5A5,5,0,0,1,5,0ZM95.67,84.86a10.73,10.73,0,0,1,4.14.82A11.16,11.16,0,0,1,103.19,88a11,11,0,0,1,2.26,3.38,10.72,10.72,0,0,1,0,8.27,10.72,10.72,0,0,1-2.26,3.38,11,11,0,0,1-3.38,2.27,10.86,10.86,0,0,1-8.28,0A10.81,10.81,0,0,1,88.16,103a10.73,10.73,0,0,1-2.27-11.65A10.8,10.8,0,0,1,88.16,88a11,11,0,0,1,3.37-2.27,10.77,10.77,0,0,1,4.14-.82Z"/></svg>