<?xml version="1.0" encoding="utf-8"?>
<!-- Svg Vector Icons : http://www.onlinewebfonts.com/icon -->
<!DOCTYPE svg PUBLIC "-//W3C//DTD SVG 1.1//EN" "http://www.w3.org/Graphics/SVG/1.1/DTD/svg11.dtd">
<svg version="1.1" xmlns="http://www.w3.org/2000/svg" xmlns:xlink="http://www.w3.org/1999/xlink" x="0px" y="0px" viewBox="0 0 1000 1000" enable-background="new 0 0 1000 1000" xml:space="preserve">
<metadata> Svg Vector Icons : http://www.onlinewebfonts.com/icon </metadata>
<g><path d="M10,908.3c0,45.1,36.5,81.7,81.7,81.7h816.7c45.1,0,81.7-36.6,81.7-81.7V683.7c0-45.1-36.6-81.7-81.7-81.7h-245V387.7c0-28.2-22.9-51-51-51c-28.2,0-51,22.9-51,51v214.4H91.7c-45.1,0-81.7,36.6-81.7,81.7V908.3L10,908.3L10,908.3z M112.1,796c0-28.2,22.9-51,51-51c28.2,0,51,22.9,51,51s-22.9,51-51,51C134.9,847.1,112.1,824.2,112.1,796L112.1,796z M295.8,796c0-28.2,22.9-51,51-51c28.2,0,51,22.9,51,51s-22.9,51-51,51C318.7,847.1,295.8,824.2,295.8,796L295.8,796L295.8,796z M612.3,173.3c-118.4,0-214.4,96-214.4,214.4c0,28.2,22.9,51,51,51c28.2,0,51-22.9,51-51c0-62.1,50.2-112.3,112.3-112.3c62.1,0,112.3,50.2,112.3,112.3c0,28.2,22.9,51,51,51s51-22.9,51-51C826.7,269.3,730.7,173.3,612.3,173.3L612.3,173.3L612.3,173.3z M612.3,10c-208.7,0-377.7,169.1-377.7,377.7c0,28.2,22.9,51,51,51c28.2,0,51-22.9,51-51c0-152.3,123.3-275.6,275.6-275.6c152.3,0,275.6,123.3,275.6,275.6c0,28.2,22.9,51,51,51c28.2,0,51-22.9,51-51C990,179.1,821,10,612.3,10L612.3,10L612.3,10z"/></g>
</svg>