<svg id="Layer_1" data-name="Layer 1" xmlns="http://www.w3.org/2000/svg" viewBox="0 0 122.88 104.11"><defs><style>.cls-1{fill-rule:evenodd;}</style></defs><title>tax-return</title><path class="cls-1" d="M59,86.69,92.48,36l26.34,17.42-33.5,50.65L59,86.69ZM49,84.27l-.2-.19-8.43,8.68-.15.16a2.53,2.53,0,0,1-3.6,0l-8.85-8.84-9.11,8.69h0a2.56,2.56,0,0,1-3.56,0L6.4,84,4.6,86A2.55,2.55,0,0,1,0,84.51v-82A2.55,2.55,0,0,1,2.55,0H95.41A2.55,2.55,0,0,1,98,2.55V27.32a10.18,10.18,0,0,0-5.09-1.57V5.1H5.1V78a2.54,2.54,0,0,1,2.84.33l.15.13h0l8.84,8.93L26,78.7a2.54,2.54,0,0,1,3.55,0h0l8.77,8.77,8.49-8.75a2.54,2.54,0,0,1,3.54-.1h0l1,.89L50.4,81A10.37,10.37,0,0,0,49,84.27ZM35.8,16.09l-.4,5.37-4.86-.22H30.1l-.19,10.42.3,7.72H22.85l.36-7L23,21.24h-.48l-4.89.22L17.22,21l.4-5.38H35.4l.4.52ZM57.07,39.38H49.6l-.66-3.93,0-.11-3.6-.08-3,.15-.63,4H34.44l7.21-23.81h8.91l6.51,23.81ZM47.8,30l-1.62-7.8h-.44L43.68,30l2.06,0,2.06,0ZM73.56,26.8l7.18,12.58h-8.8l-1.25-2.9-2.13-3.87-2.73,4.24-1.18,2.53H57.18l7.07-11.44L57,15.57H65.8l1.28,3,2.1,3.76,2.39-4.16,1.11-2.58h7.69L73.56,26.8ZM60.09,66.35H19.43a1.88,1.88,0,0,1,0-3.76H62.58l-2.49,3.76Zm8.28-12.52H18.89a1.88,1.88,0,1,1,0-3.75h52l-2.48,3.75Zm37.94,46.76-3-16.53,4.87,3.41c5.56-5.23,7.55-11,5.47-18,9.13,7.36,9.16,17.14,4.24,24.8l5,3.48-16.56,2.82h0ZM81.16,65a9.3,9.3,0,1,1,2.63,12.87A9.29,9.29,0,0,1,81.16,65ZM68.59,80.88,90.87,47.2a4.66,4.66,0,0,0,6.46-1.32l10.41,6.89a4.67,4.67,0,0,0,1.32,6.46L86.79,92.91a4.68,4.68,0,0,0-6.47,1.32L69.91,87.34a4.66,4.66,0,0,0-1.32-6.46Z"/></svg>