<?xml version="1.0" encoding="UTF-8"?>
<svg xmlns="http://www.w3.org/2000/svg" xmlns:xlink="http://www.w3.org/1999/xlink" width="16px" height="16px" viewBox="0 0 16 16" version="1.1">
<g id="surface1">
<path style=" stroke:none;fill-rule:nonzero;fill:#ffffff;" d="M 11.53125 4.519531 L 8 8.046875 L 9.359375 9.414062 L 11.085938 7.691406 C 11.230469 8.058594 11.304688 8.464844 11.304688 8.882812 C 11.304688 9.773438 10.941406 10.578125 10.359375 11.160156 L 11.980469 12.859375 C 12.996094 11.84375 13.621094 10.4375 13.621094 8.890625 C 13.621094 7.230469 12.902344 5.738281 11.757812 4.710938 C 11.691406 4.652344 11.601562 4.574219 11.53125 4.519531 Z M 11.53125 4.519531 "/>
<path style=" stroke:none;fill-rule:nonzero;fill:#ffffff;" d="M 10.359375 11.160156 C 9.777344 11.742188 8.972656 12.105469 8.082031 12.105469 C 7.246094 12.105469 6.484375 11.785156 5.914062 11.265625 L 4.265625 13.070312 C 5.257812 13.960938 6.570312 14.5 8.007812 14.5 C 9.558594 14.5 10.964844 13.875 11.980469 12.859375 Z M 10.359375 11.160156 "/>
<path style=" stroke:none;fill-rule:nonzero;fill:#ffffff;" d="M 5.914062 11.265625 C 5.265625 10.675781 4.859375 9.824219 4.859375 8.882812 C 4.859375 8.351562 4.988281 7.847656 5.21875 7.40625 L 3.257812 5.902344 C 2.710938 6.765625 2.394531 7.789062 2.394531 8.890625 C 2.394531 10.550781 3.117188 12.042969 4.265625 13.070312 Z M 5.914062 11.265625 "/>
<path style=" stroke:none;fill-rule:nonzero;fill:#ffffff;" d="M 5.21875 7.40625 C 5.375 7.105469 5.574219 6.828125 5.816406 6.59375 L 8.980469 3.359375 L 9.675781 2.644531 L 7.984375 0.941406 L 4.019531 4.9375 C 3.730469 5.230469 3.476562 5.550781 3.257812 5.902344 Z M 5.21875 7.40625 "/>
</g>
</svg>
