<?xml version="1.0" encoding="UTF-8"?>
<svg xmlns="http://www.w3.org/2000/svg" xmlns:xlink="http://www.w3.org/1999/xlink" width="351px" height="365px" viewBox="0 0 351 365" version="1.1">
<g id="surface1">
<path style=" stroke:none;fill-rule:evenodd;fill:rgb(0%,55.294118%,81.960784%);fill-opacity:1;" d="M 252.984375 103.082031 L 175.523438 183.601562 L 205.34375 214.734375 L 243.171875 175.429688 C 246.367188 183.808594 247.972656 193.074219 247.972656 202.617188 C 247.972656 222.921875 240.0625 241.296875 227.277344 254.59375 L 262.78125 293.324219 C 285.066406 270.152344 298.839844 238.132812 298.839844 202.773438 C 298.839844 164.929688 283.058594 130.929688 257.96875 107.496094 C 256.496094 106.140625 254.507812 104.351562 252.984375 103.082031 Z M 252.984375 103.082031 "/>
<path style=" stroke:none;fill-rule:evenodd;fill:rgb(96.470588%,72.156863%,9.019608%);fill-opacity:1;" d="M 227.277344 254.59375 C 214.488281 267.890625 196.820312 276.132812 177.292969 276.132812 C 158.972656 276.132812 142.273438 268.867188 129.71875 256.976562 L 93.59375 298.207031 C 115.375 318.496094 144.164062 330.820312 175.707031 330.820312 C 209.707031 330.820312 240.5 316.496094 262.78125 293.324219 Z M 227.277344 254.59375 "/>
<path style=" stroke:none;fill-rule:evenodd;fill:rgb(20%,63.921569%,32.54902%);fill-opacity:1;" d="M 129.71875 256.976562 C 115.527344 243.539062 106.617188 224.15625 106.617188 202.617188 C 106.617188 190.484375 109.441406 179.046875 114.457031 168.945312 L 71.445312 134.613281 C 59.476562 154.34375 52.554688 177.726562 52.554688 202.773438 C 52.554688 240.6875 68.402344 274.757812 93.59375 298.207031 Z M 129.71875 256.976562 "/>
<path style=" stroke:none;fill-rule:evenodd;fill:rgb(89.803922%,26.27451%,20.392157%);fill-opacity:1;" d="M 114.457031 168.945312 C 117.882812 162.0625 122.3125 155.804688 127.5625 150.398438 L 196.96875 76.625 L 212.296875 60.335938 L 175.15625 21.433594 L 88.195312 112.675781 C 81.878906 119.316406 76.242188 126.671875 71.445312 134.613281 Z M 114.457031 168.945312 "/>
</g>
</svg>
