<?xml version="1.0" encoding="UTF-8"?>
<!DOCTYPE svg PUBLIC "-//W3C//DTD SVG 1.1//EN" "http://www.w3.org/Graphics/SVG/1.1/DTD/svg11.dtd">
<!-- Creator: CorelDRAW X7 -->
<svg xmlns="http://www.w3.org/2000/svg" xml:space="preserve" width="297mm" height="110mm" version="1.1" style="shape-rendering:geometricPrecision; text-rendering:geometricPrecision; image-rendering:optimizeQuality; fill-rule:evenodd; clip-rule:evenodd"
viewBox="0 0 29700 11000"
 xmlns:xlink="http://www.w3.org/1999/xlink">
 <defs>
  <style type="text/css">
   <![CDATA[
    .fil0 {fill:none}
    .fil1 {fill:#008DD1}
    .fil3 {fill:#33A353}
    .fil4 {fill:#E54334}
    .fil2 {fill:#F6B817}
    .fil5 {fill:#008DD1;fill-rule:nonzero}
   ]]>
  </style>
 </defs>
 <g id="Layer_x0020_1">
  <metadata id="CorelCorpID_0Corel-Layer"/>
  <path class="fil0" d="M1898 3719l2522 -2545 1077 1085 -2457 2511m0 0c-375,372 -608,887 -608,1457 0,1132 918,2050 2050,2050 1132,0 2050,-918 2050,-2050 0,-266 -47,-525 -139,-758l-1097 1096 -865 -869 2246 -2245c44,35 102,85 145,123 727,654 1185,1602 1185,2657 0,1973 -1599,3571 -3571,3571 -1973,0 -3571,-1598 -3571,-3571 0,-980 394,-1867 1033,-2512m3149 -1007c2,0 4,1 6,1m-3641 1617l1248 958m-605 3605l1047 -1150m2830 -67l1029 1080"/>
  <path class="fil1" d="M6677 3451l-2246 2245 865 869 1097 -1096c92,233 139,492 139,758 0,566 -229,1078 -600,1449l1029 1080c646,-646 1046,-1539 1046,-2525 0,-1055 -458,-2003 -1185,-2657 -43,-38 -101,-88 -145,-123z"/>
  <path class="fil2" d="M5932 7676c-371,371 -884,601 -1450,601 -531,0 -1016,-202 -1380,-534l-1047 1150c631,565 1466,909 2381,909 986,0 1879,-399 2525,-1046l-1029 -1080z"/>
  <path class="fil3" d="M3102 7743c-411,-375 -670,-915 -670,-1516 0,-338 82,-658 228,-939l-1248 -958c-347,551 -547,1203 -547,1901 0,1058 459,2008 1190,2662l1047 -1150z"/>
  <path class="fil4" d="M2660 5288c99,-192 228,-367 380,-518l2013 -2057 444 -454 -1077 -1085 -2522 2545c-183,185 -346,390 -486,611l1248 958z"/>
  <path class="fil5" d="M11386 3810l168 0 0 954 -168 0c-388,0 -736,146 -1042,440 -307,292 -461,625 -461,997l0 3491 -1068 0 0 -3491c0,-698 241,-1270 726,-1719 483,-448 1098,-672 1845,-672zm3727 840c-577,0 -1072,206 -1482,615 -412,412 -618,906 -618,1484 0,576 206,1070 618,1482 410,411 905,617 1482,617 355,0 686,-84 997,-252 310,-169 567,-403 769,-702l0 1415c-543,329 -1130,493 -1766,493 -427,0 -835,-74 -1220,-226 -386,-150 -726,-365 -1022,-645 -617,-586 -926,-1312 -926,-2182 0,-870 309,-1600 926,-2187 296,-279 636,-492 1022,-642 385,-149 793,-224 1220,-224 428,0 834,75 1219,224 386,150 726,363 1022,642 617,587 928,1317 928,2187l0 2943 -1070 0 0 -2943c0,-578 -206,-1072 -616,-1484 -411,-409 -905,-615 -1483,-615zm4177 5042l0 -6644c0,-548 180,-997 543,-1349 361,-349 814,-525 1358,-525l977 0 0 954 -911 0c-277,0 -496,82 -657,247 -161,165 -241,389 -241,673l0 762 1704 0 0 954 -1704 0 0 4928 -1069 0zm6434 -5996c429,0 835,75 1220,224 386,150 726,363 1022,642 617,587 926,1317 926,2187 0,870 -309,1596 -926,2182 -296,280 -636,495 -1022,645 -385,152 -791,226 -1220,226 -426,0 -834,-74 -1219,-226 -386,-150 -726,-365 -1022,-645 -617,-586 -926,-1312 -926,-2182 0,-870 309,-1600 926,-2187 296,-279 636,-492 1022,-642 385,-149 793,-224 1219,-224zm-2099 3053c0,576 206,1070 618,1482 409,411 903,617 1481,617 579,0 1072,-206 1484,-617 410,-412 616,-906 616,-1482 0,-578 -206,-1072 -616,-1484 -412,-409 -905,-615 -1484,-615 -578,0 -1072,206 -1481,615 -412,412 -618,906 -618,1484z"/>
  <path class="fil0" d="M1898 3719l2522 -2545 1077 1085 -2457 2511m0 0c-375,372 -608,887 -608,1457 0,1132 918,2050 2050,2050 1132,0 2050,-918 2050,-2050 0,-266 -47,-525 -139,-758l-1097 1096 -865 -869 2246 -2245c44,35 102,85 145,123 727,654 1185,1602 1185,2657 0,1973 -1599,3571 -3571,3571 -1973,0 -3571,-1598 -3571,-3571 0,-980 394,-1867 1033,-2512m3149 -1007c2,0 4,1 6,1m-3641 1617l1248 958m-605 3605l1047 -1150m2830 -67l1029 1080"/>
  <path class="fil1" d="M6677 3451l-2246 2245 865 869 1097 -1096c92,233 139,492 139,758 0,566 -229,1078 -600,1449l1029 1080c646,-646 1046,-1539 1046,-2525 0,-1055 -458,-2003 -1185,-2657 -43,-38 -101,-88 -145,-123z"/>
  <path class="fil2" d="M5932 7676c-371,371 -884,601 -1450,601 -531,0 -1016,-202 -1380,-534l-1047 1150c631,565 1466,909 2381,909 986,0 1879,-399 2525,-1046l-1029 -1080z"/>
  <path class="fil3" d="M3102 7743c-411,-375 -670,-915 -670,-1516 0,-338 82,-658 228,-939l-1248 -958c-347,551 -547,1203 -547,1901 0,1058 459,2008 1190,2662l1047 -1150z"/>
  <path class="fil4" d="M2660 5288c99,-192 228,-367 380,-518l2013 -2057 444 -454 -1077 -1085 -2522 2545c-183,185 -346,390 -486,611l1248 958z"/>
 </g>
</svg>
