<?xml version="1.0" encoding="UTF-8"?>
<svg xmlns="http://www.w3.org/2000/svg" xmlns:xlink="http://www.w3.org/1999/xlink" width="51px" height="12px" viewBox="0 0 51 12" version="1.1">
<g id="surface1">
<path style=" stroke:none;fill-rule:evenodd;fill:rgb(0%,55.294118%,81.960784%);fill-opacity:1;" d="M 11.46875 3.761719 L 7.613281 6.210938 L 9.097656 7.15625 L 10.980469 5.960938 C 11.140625 6.214844 11.21875 6.5 11.21875 6.789062 C 11.21875 7.40625 10.828125 7.964844 10.191406 8.367188 L 11.957031 9.546875 C 13.066406 8.84375 13.753906 7.867188 13.753906 6.792969 C 13.753906 5.644531 12.96875 4.609375 11.71875 3.898438 C 11.644531 3.855469 11.546875 3.800781 11.46875 3.761719 Z M 11.46875 3.761719 "/>
<path style=" stroke:none;fill-rule:evenodd;fill:rgb(96.470588%,72.156863%,9.019608%);fill-opacity:1;" d="M 10.191406 8.367188 C 9.550781 8.773438 8.671875 9.023438 7.699219 9.023438 C 6.785156 9.023438 5.953125 8.804688 5.328125 8.441406 L 3.53125 9.695312 C 4.613281 10.3125 6.046875 10.6875 7.621094 10.6875 C 9.3125 10.6875 10.847656 10.25 11.957031 9.546875 Z M 10.191406 8.367188 "/>
<path style=" stroke:none;fill-rule:evenodd;fill:#6bceff;fill-opacity:1;" d="M 5.328125 8.441406 C 4.621094 8.03125 4.175781 7.445312 4.175781 6.789062 C 4.175781 6.421875 4.320312 6.070312 4.570312 5.765625 L 2.425781 4.722656 C 1.828125 5.320312 1.484375 6.03125 1.484375 6.792969 C 1.484375 7.945312 2.273438 8.984375 3.53125 9.695312 Z M 5.328125 8.441406 "/>
<path style=" stroke:none;fill-rule:evenodd;fill:rgb(89.803922%,26.27451%,20.392157%);fill-opacity:1;" d="M 4.570312 5.765625 C 4.738281 5.554688 4.960938 5.363281 5.222656 5.199219 L 8.679688 2.957031 L 9.441406 2.460938 L 7.59375 1.28125 L 3.261719 4.054688 C 2.945312 4.257812 2.664062 4.480469 2.425781 4.722656 Z M 4.570312 5.765625 "/>
<path style=" stroke:none;fill-rule:nonzero;fill:rgb(0%,55.294118%,81.960784%);fill-opacity:1;" d="M 19.558594 4.152344 L 19.847656 4.152344 L 19.847656 5.195312 L 19.558594 5.195312 C 18.890625 5.195312 18.292969 5.351562 17.769531 5.671875 C 17.242188 5.992188 16.976562 6.355469 16.976562 6.761719 L 16.976562 10.566406 L 15.140625 10.566406 L 15.140625 6.761719 C 15.140625 6 15.554688 5.375 16.390625 4.886719 C 17.21875 4.398438 18.273438 4.152344 19.558594 4.152344 Z M 25.960938 5.070312 C 24.96875 5.070312 24.117188 5.292969 23.414062 5.738281 C 22.707031 6.1875 22.351562 6.726562 22.351562 7.359375 C 22.351562 7.984375 22.707031 8.523438 23.414062 8.972656 C 24.117188 9.421875 24.96875 9.648438 25.960938 9.648438 C 26.570312 9.648438 27.140625 9.554688 27.671875 9.371094 C 28.207031 9.1875 28.648438 8.933594 28.992188 8.605469 L 28.992188 10.148438 C 28.0625 10.507812 27.054688 10.6875 25.960938 10.6875 C 25.226562 10.6875 24.527344 10.605469 23.863281 10.441406 C 23.203125 10.277344 22.617188 10.042969 22.109375 9.738281 C 21.050781 9.097656 20.519531 8.304688 20.519531 7.359375 C 20.519531 6.410156 21.050781 5.613281 22.109375 4.972656 C 22.617188 4.667969 23.203125 4.4375 23.863281 4.273438 C 24.527344 4.109375 25.226562 4.03125 25.960938 4.03125 C 26.695312 4.03125 27.394531 4.109375 28.054688 4.273438 C 28.71875 4.4375 29.300781 4.667969 29.808594 4.972656 C 30.871094 5.613281 31.402344 6.410156 31.402344 7.359375 L 31.402344 10.566406 L 29.566406 10.566406 L 29.566406 7.359375 C 29.566406 6.726562 29.210938 6.1875 28.507812 5.738281 C 27.800781 5.292969 26.953125 5.070312 25.960938 5.070312 Z M 33.136719 10.566406 L 33.136719 3.324219 C 33.136719 2.726562 33.445312 2.234375 34.070312 1.851562 C 34.6875 1.472656 35.464844 1.28125 36.402344 1.28125 L 38.078125 1.28125 L 38.078125 2.320312 L 36.515625 2.320312 C 36.039062 2.320312 35.664062 2.410156 35.386719 2.589844 C 35.109375 2.769531 34.972656 3.011719 34.972656 3.324219 L 34.972656 4.152344 L 37.898438 4.152344 L 37.898438 5.195312 L 34.972656 5.195312 L 34.972656 10.566406 Z M 44.1875 4.03125 C 44.925781 4.03125 45.621094 4.109375 46.285156 4.273438 C 46.945312 4.4375 47.53125 4.667969 48.039062 4.972656 C 49.097656 5.613281 49.628906 6.410156 49.628906 7.359375 C 49.628906 8.304688 49.097656 9.097656 48.039062 9.738281 C 47.53125 10.042969 46.945312 10.277344 46.285156 10.441406 C 45.621094 10.605469 44.925781 10.6875 44.1875 10.6875 C 43.457031 10.6875 42.753906 10.605469 42.09375 10.441406 C 41.429688 10.277344 40.847656 10.042969 40.339844 9.738281 C 39.277344 9.097656 38.746094 8.304688 38.746094 7.359375 C 38.746094 6.410156 39.277344 5.613281 40.339844 4.972656 C 40.847656 4.667969 41.429688 4.4375 42.09375 4.273438 C 42.753906 4.109375 43.457031 4.03125 44.1875 4.03125 Z M 40.582031 7.359375 C 40.582031 7.984375 40.9375 8.523438 41.644531 8.972656 C 42.347656 9.421875 43.195312 9.648438 44.1875 9.648438 C 45.183594 9.648438 46.027344 9.421875 46.738281 8.972656 C 47.441406 8.523438 47.796875 7.984375 47.796875 7.359375 C 47.796875 6.726562 47.441406 6.1875 46.738281 5.738281 C 46.027344 5.292969 45.183594 5.070312 44.1875 5.070312 C 43.195312 5.070312 42.347656 5.292969 41.644531 5.738281 C 40.9375 6.1875 40.582031 6.726562 40.582031 7.359375 Z M 40.582031 7.359375 "/>
<path style=" stroke:none;fill-rule:evenodd;fill:rgb(0%,55.294118%,81.960784%);fill-opacity:1;" d="M 11.46875 3.761719 L 7.613281 6.210938 L 9.097656 7.15625 L 10.980469 5.960938 C 11.140625 6.214844 11.21875 6.5 11.21875 6.789062 C 11.21875 7.40625 10.828125 7.964844 10.191406 8.367188 L 11.957031 9.546875 C 13.066406 8.84375 13.753906 7.867188 13.753906 6.792969 C 13.753906 5.644531 12.96875 4.609375 11.71875 3.898438 C 11.644531 3.855469 11.546875 3.800781 11.46875 3.761719 Z M 11.46875 3.761719 "/>
<path style=" stroke:none;fill-rule:evenodd;fill:rgb(96.470588%,72.156863%,9.019608%);fill-opacity:1;" d="M 10.191406 8.367188 C 9.550781 8.773438 8.671875 9.023438 7.699219 9.023438 C 6.785156 9.023438 5.953125 8.804688 5.328125 8.441406 L 3.53125 9.695312 C 4.613281 10.3125 6.046875 10.6875 7.621094 10.6875 C 9.3125 10.6875 10.847656 10.25 11.957031 9.546875 Z M 10.191406 8.367188 "/>
<path style=" stroke:none;fill-rule:evenodd;fill:rgb(20%,63.921569%,32.54902%);fill-opacity:1;" d="M 5.328125 8.441406 C 4.621094 8.03125 4.175781 7.445312 4.175781 6.789062 C 4.175781 6.421875 4.320312 6.070312 4.570312 5.765625 L 2.425781 4.722656 C 1.828125 5.320312 1.484375 6.03125 1.484375 6.792969 C 1.484375 7.945312 2.273438 8.984375 3.53125 9.695312 Z M 5.328125 8.441406 "/>
<path style=" stroke:none;fill-rule:evenodd;fill:rgb(89.803922%,26.27451%,20.392157%);fill-opacity:1;" d="M 4.570312 5.765625 C 4.738281 5.554688 4.960938 5.363281 5.222656 5.199219 L 8.679688 2.957031 L 9.441406 2.460938 L 7.59375 1.28125 L 3.261719 4.054688 C 2.945312 4.257812 2.664062 4.480469 2.425781 4.722656 Z M 4.570312 5.765625 "/>
</g>
</svg>
