<?xml version="1.0" encoding="UTF-8"?>
<svg xmlns="http://www.w3.org/2000/svg" xmlns:xlink="http://www.w3.org/1999/xlink" width="394px" height="92px" viewBox="0 0 394 92" version="1.1">
<g id="surface1">
<path style=" stroke:none;fill-rule:evenodd;fill:rgb(0%,55.294118%,81.960784%);fill-opacity:1;" d="M 88.609375 28.84375 L 58.800781 47.609375 L 70.28125 54.875 L 84.839844 45.714844 C 86.058594 47.660156 86.683594 49.824219 86.683594 52.046875 C 86.683594 56.78125 83.644531 61.058594 78.722656 64.160156 L 92.375 73.1875 C 100.949219 67.789062 106.257812 60.324219 106.257812 52.082031 C 106.257812 43.265625 100.179688 35.339844 90.53125 29.875 C 89.960938 29.554688 89.191406 29.136719 88.609375 28.84375 Z M 88.609375 28.84375 "/>
<path style=" stroke:none;fill-rule:evenodd;fill:rgb(96.470588%,72.156863%,9.019608%);fill-opacity:1;" d="M 78.722656 64.160156 C 73.796875 67.261719 66.988281 69.183594 59.480469 69.183594 C 52.433594 69.183594 45.996094 67.496094 41.164062 64.71875 L 27.269531 74.332031 C 35.644531 79.054688 46.726562 81.929688 58.867188 81.929688 C 71.953125 81.929688 83.804688 78.59375 92.375 73.1875 Z M 78.722656 64.160156 "/>
<path style=" stroke:none;fill-rule:evenodd;fill:rgb(20%,63.921569%,32.54902%);fill-opacity:1;" d="M 41.164062 64.71875 C 35.710938 61.585938 32.273438 57.074219 32.273438 52.046875 C 32.273438 49.222656 33.363281 46.550781 35.300781 44.199219 L 18.738281 36.191406 C 14.132812 40.796875 11.480469 46.246094 11.480469 52.082031 C 11.480469 60.925781 17.570312 68.867188 27.269531 74.332031 Z M 41.164062 64.71875 "/>
<path style=" stroke:none;fill-rule:evenodd;fill:rgb(89.803922%,26.27451%,20.392157%);fill-opacity:1;" d="M 35.300781 44.199219 C 36.613281 42.59375 38.324219 41.132812 40.34375 39.871094 L 67.054688 22.675781 L 72.949219 18.882812 L 58.65625 9.8125 L 25.1875 31.085938 C 22.757812 32.632812 20.597656 34.34375 18.738281 36.191406 Z M 35.300781 44.199219 "/>
<path style=" stroke:none;fill-rule:nonzero;fill:rgb(0%,55.294118%,81.960784%);fill-opacity:1;" d="M 151.097656 31.847656 L 153.328125 31.847656 L 153.328125 39.820312 L 151.097656 39.820312 C 145.949219 39.820312 141.332031 41.039062 137.269531 43.496094 C 133.195312 45.9375 131.152344 48.722656 131.152344 51.832031 L 131.152344 81.011719 L 116.980469 81.011719 L 116.980469 51.832031 C 116.980469 45.996094 120.179688 41.214844 126.613281 37.464844 C 133.023438 33.71875 141.183594 31.847656 151.097656 31.847656 Z M 200.558594 38.867188 C 192.902344 38.867188 186.332031 40.589844 180.890625 44.007812 C 175.421875 47.453125 172.691406 51.582031 172.691406 56.410156 C 172.691406 61.226562 175.421875 65.355469 180.890625 68.800781 C 186.332031 72.234375 192.902344 73.957031 200.558594 73.957031 C 205.269531 73.957031 209.660156 73.253906 213.789062 71.851562 C 217.902344 70.4375 221.3125 68.480469 223.992188 65.984375 L 223.992188 77.808594 C 216.789062 80.558594 209 81.929688 200.558594 81.929688 C 194.890625 81.929688 189.476562 81.3125 184.367188 80.042969 C 179.246094 78.789062 174.734375 76.992188 170.804688 74.652344 C 162.617188 69.753906 158.515625 63.683594 158.515625 56.410156 C 158.515625 49.140625 162.617188 43.039062 170.804688 38.132812 C 174.734375 35.800781 179.246094 34.019531 184.367188 32.765625 C 189.476562 31.519531 194.890625 30.894531 200.558594 30.894531 C 206.238281 30.894531 211.625 31.519531 216.734375 32.765625 C 221.855469 34.019531 226.371094 35.800781 230.296875 38.132812 C 238.484375 43.039062 242.613281 49.140625 242.613281 56.410156 L 242.613281 81.011719 L 228.414062 81.011719 L 228.414062 56.410156 C 228.414062 51.582031 225.679688 47.453125 220.238281 44.007812 C 214.785156 40.589844 208.226562 38.867188 200.558594 38.867188 Z M 255.988281 81.011719 L 255.988281 25.476562 C 255.988281 20.894531 258.378906 17.144531 263.195312 14.203125 C 267.984375 11.285156 273.996094 9.8125 281.214844 9.8125 L 294.183594 9.8125 L 294.183594 17.785156 L 282.09375 17.785156 C 278.417969 17.785156 275.511719 18.472656 273.375 19.851562 C 271.238281 21.230469 270.175781 23.101562 270.175781 25.476562 L 270.175781 31.847656 L 292.789062 31.847656 L 292.789062 39.820312 L 270.175781 39.820312 L 270.175781 81.011719 Z M 341.371094 30.894531 C 347.066406 30.894531 352.453125 31.519531 357.5625 32.765625 C 362.683594 34.019531 367.195312 35.800781 371.125 38.132812 C 379.3125 43.039062 383.414062 49.140625 383.414062 56.410156 C 383.414062 63.683594 379.3125 69.753906 371.125 74.652344 C 367.195312 76.992188 362.683594 78.789062 357.5625 80.042969 C 352.453125 81.3125 347.066406 81.929688 341.371094 81.929688 C 335.71875 81.929688 330.304688 81.3125 325.195312 80.042969 C 320.074219 78.789062 315.5625 76.992188 311.632812 74.652344 C 303.445312 69.753906 299.34375 63.683594 299.34375 56.410156 C 299.34375 49.140625 303.445312 43.039062 311.632812 38.132812 C 315.5625 35.800781 320.074219 34.019531 325.195312 32.765625 C 330.304688 31.519531 335.71875 30.894531 341.371094 30.894531 Z M 313.515625 56.410156 C 313.515625 61.226562 316.25 65.355469 321.71875 68.800781 C 327.144531 72.234375 333.703125 73.957031 341.371094 73.957031 C 349.054688 73.957031 355.597656 72.234375 361.066406 68.800781 C 366.507812 65.355469 369.238281 61.226562 369.238281 56.410156 C 369.238281 51.582031 366.507812 47.453125 361.066406 44.007812 C 355.597656 40.589844 349.054688 38.867188 341.371094 38.867188 C 333.703125 38.867188 327.144531 40.589844 321.71875 44.007812 C 316.25 47.453125 313.515625 51.582031 313.515625 56.410156 Z M 313.515625 56.410156 "/>
<path style=" stroke:none;fill-rule:evenodd;fill:rgb(0%,55.294118%,81.960784%);fill-opacity:1;" d="M 88.609375 28.84375 L 58.800781 47.609375 L 70.28125 54.875 L 84.839844 45.714844 C 86.058594 47.660156 86.683594 49.824219 86.683594 52.046875 C 86.683594 56.78125 83.644531 61.058594 78.722656 64.160156 L 92.375 73.1875 C 100.949219 67.789062 106.257812 60.324219 106.257812 52.082031 C 106.257812 43.265625 100.179688 35.339844 90.53125 29.875 C 89.960938 29.554688 89.191406 29.136719 88.609375 28.84375 Z M 88.609375 28.84375 "/>
<path style=" stroke:none;fill-rule:evenodd;fill:rgb(96.470588%,72.156863%,9.019608%);fill-opacity:1;" d="M 78.722656 64.160156 C 73.796875 67.261719 66.988281 69.183594 59.480469 69.183594 C 52.433594 69.183594 45.996094 67.496094 41.164062 64.71875 L 27.269531 74.332031 C 35.644531 79.054688 46.726562 81.929688 58.867188 81.929688 C 71.953125 81.929688 83.804688 78.59375 92.375 73.1875 Z M 78.722656 64.160156 "/>
<path style=" stroke:none;fill-rule:evenodd;fill:rgb(20%,63.921569%,32.54902%);fill-opacity:1;" d="M 41.164062 64.71875 C 35.710938 61.585938 32.273438 57.074219 32.273438 52.046875 C 32.273438 49.222656 33.363281 46.550781 35.300781 44.199219 L 18.738281 36.191406 C 14.132812 40.796875 11.480469 46.246094 11.480469 52.082031 C 11.480469 60.925781 17.570312 68.867188 27.269531 74.332031 Z M 41.164062 64.71875 "/>
<path style=" stroke:none;fill-rule:evenodd;fill:rgb(89.803922%,26.27451%,20.392157%);fill-opacity:1;" d="M 35.300781 44.199219 C 36.613281 42.59375 38.324219 41.132812 40.34375 39.871094 L 67.054688 22.675781 L 72.949219 18.882812 L 58.65625 9.8125 L 25.1875 31.085938 C 22.757812 32.632812 20.597656 34.34375 18.738281 36.191406 Z M 35.300781 44.199219 "/>
</g>
</svg>
